<svg width="284" height="140" viewBox="0 0 284 140" fill="none" xmlns="http://www.w3.org/2000/svg">
<path d="M53.552 75L43.76 74.936C43.0347 74.936 42.5653 74.4667 42.352 73.528C42.1387 72.9307 42.032 72.0773 42.032 70.968C42.032 67.256 41.9893 63.9493 41.904 61.048C41.776 56.8667 41.712 52.4507 41.712 47.8V33.72C41.712 33.336 41.8827 32.9733 42.224 32.632C42.608 32.248 42.992 32.056 43.376 32.056L50.8 32.12C52.208 32.1627 53.9787 32.184 56.112 32.184C59.312 32.184 61.808 32.1627 63.6 32.12L65.968 32.056C68.6133 31.9707 70.704 31.928 72.24 31.928C74.8853 31.928 77.4453 32.44 79.92 33.464C82.8213 34.5733 85.1467 36.472 86.896 39.16C88.9867 42.4027 90.032 46.392 90.032 51.128C90.032 55.608 89.52 59.3413 88.496 62.328C87.5147 65.3147 85.936 67.768 83.76 69.688C81.584 71.5653 78.7253 72.9307 75.184 73.784C71.6853 74.6373 67.2907 75.064 62 75.064L53.552 75ZM62.512 66.488C62.6827 66.5307 62.9173 66.552 63.216 66.552C63.5573 66.552 64.0267 66.5093 64.624 66.424C64.8373 66.3813 64.9867 66.3387 65.072 66.296C65.2 66.2107 65.3067 66.1467 65.392 66.104C65.904 65.5067 66.3947 64.248 66.864 62.328C67.1627 61.1333 67.5253 59.0853 67.952 56.184C68.1653 53.7093 68.272 51.576 68.272 49.784V48.568C68.272 47.4587 68.1653 45.7947 67.952 43.576C67.6533 41.3573 67.2267 39.8 66.672 38.904C66.2027 38.3067 65.776 38.008 65.392 38.008C65.008 38.008 64.6667 38.0507 64.368 38.136C64.0693 38.2213 63.8773 38.2853 63.792 38.328C63.7067 38.3707 63.5147 38.4773 63.216 38.648L63.152 46.328C63.152 47.0107 63.1093 48.0347 63.024 49.4L62.96 50.936C62.8747 53.0693 62.832 54.6053 62.832 55.544L62.512 66.488ZM120.97 76.536C115.892 76.536 111.882 76.1307 108.938 75.32C104.842 74.2533 101.727 72.2693 99.5935 69.368C97.1188 65.912 95.8815 61.112 95.8815 54.968C95.8815 50.5733 96.3722 46.84 97.3535 43.768C98.3348 40.696 99.8495 38.1787 101.898 36.216C103.946 34.2533 106.57 32.824 109.77 31.928C113.012 30.9893 116.959 30.52 121.61 30.52C125.236 30.52 128.65 31.0747 131.85 32.184C135.775 33.592 138.826 35.7467 141.002 38.648C143.69 42.104 145.034 46.648 145.034 52.28C145.034 58.8507 144.052 63.9707 142.09 67.64C140.127 71.0107 137.29 73.4 133.578 74.808C130.548 75.96 126.346 76.536 120.97 76.536ZM120.458 70.328C120.97 70.328 121.375 70.008 121.674 69.368C122.314 68.0027 122.762 65.848 123.018 62.904C123.274 60.216 123.402 57.6773 123.402 55.288V52.728V51.128C123.402 49.2507 123.274 46.968 123.018 44.28C122.762 41.3787 122.314 39.1813 121.674 37.688C121.332 36.9627 120.927 36.6 120.458 36.6C119.519 36.6 118.836 37.496 118.41 39.288C117.983 41.7627 117.77 44.0027 117.77 46.008C117.642 47.7147 117.578 50.3813 117.578 54.008C117.578 56.44 117.642 58.4453 117.77 60.024C117.77 62.0293 117.983 64.3547 118.41 67C118.836 69.2187 119.519 70.328 120.458 70.328ZM184.674 75.512C184.418 75.2133 184.29 75.0427 184.29 75L177.57 67.256C177.442 67.128 177.228 66.872 176.93 66.488C176.631 66.104 176.354 65.784 176.098 65.528L175.138 64.568C174.839 64.3547 174.647 64.248 174.562 64.248C174.391 64.248 174.263 64.312 174.178 64.44C174.092 64.5253 174.05 64.632 174.05 64.76V65.656V67.064C174.05 67.7467 174.007 68.28 173.922 68.664V70.328C173.879 70.712 173.858 71.1813 173.858 71.736V72.568V73.528V73.784C173.858 74.2107 173.708 74.4453 173.41 74.488C173.196 74.6587 172.876 74.7013 172.45 74.616C170.231 74.7013 168.631 74.744 167.65 74.744L159.458 74.68H158.37H157.09C156.535 74.68 156.151 74.6587 155.938 74.616H155.49L152.61 74.36L152.418 73.848C152.375 73.848 152.354 73.6133 152.354 73.144C152.354 72.4187 152.332 71.8 152.29 71.288V68.728C152.204 68.088 152.161 67.128 152.161 65.848L152.034 60.92C151.991 59.8533 151.884 58.2533 151.714 56.12L151.65 54.52C151.564 53.0693 151.522 52.0027 151.522 51.32V50.68C151.607 50.424 151.65 50.04 151.65 49.528C151.692 48.9733 151.714 48.3333 151.714 47.608L151.65 46.328C151.65 46.0293 151.628 45.7947 151.586 45.624C151.543 45.4107 151.522 45.2613 151.522 45.176C151.522 45.0907 151.543 44.8347 151.586 44.408C151.628 43.9813 151.65 43.5547 151.65 43.128C151.692 42.616 151.714 41.976 151.714 41.208V40.248V38.968C151.671 38.2427 151.65 37.176 151.65 35.768C151.564 35.4693 151.522 35.0427 151.522 34.488V33.848C151.394 32.8667 151.906 32.2907 153.058 32.12C153.399 31.992 153.89 31.928 154.53 31.928H155.938H163.042H168.29H171.682H173.73C174.327 31.928 174.69 32.2907 174.818 33.016C174.86 33.144 174.882 33.4213 174.882 33.848V34.808C174.882 35.8747 174.839 37.4747 174.754 39.608L174.69 41.336C174.604 42.4453 174.562 43.2133 174.562 43.64C175.074 43.64 175.543 43.512 175.97 43.256C176.268 42.9573 176.418 42.808 176.418 42.808C176.503 42.7653 176.588 42.7013 176.674 42.616C176.802 42.488 176.908 42.3813 176.994 42.296C177.164 42.2107 177.57 41.848 178.21 41.208C179.276 40.1413 181.026 38.4987 183.458 36.28C185.804 34.0613 187.639 32.44 188.962 31.416C189.772 30.8613 190.284 30.5627 190.498 30.52C190.583 30.52 190.732 30.6267 190.946 30.84C191.159 31.0533 191.308 31.2027 191.394 31.288C191.394 31.288 191.586 31.48 191.97 31.864C192.055 32.0773 192.162 32.2053 192.29 32.248L192.674 32.696C193.058 32.9947 193.314 33.2507 193.442 33.464L194.21 34.168C194.338 34.296 194.444 34.424 194.53 34.552C194.615 34.6373 194.679 34.7013 194.722 34.744C194.978 35.1707 195.66 36.088 196.77 37.496C197.623 38.4773 198.263 39.4373 198.69 40.376V40.504C198.69 41.1013 198.092 42.04 196.898 43.32L195.49 44.728C194.978 45.1973 194.615 45.56 194.402 45.816C194.359 45.816 194.295 45.8587 194.21 45.944C194.124 46.0293 194.018 46.136 193.89 46.264L191.33 48.248C191.33 48.248 190.903 48.6747 190.05 49.528L188.898 50.424C188.812 50.4667 188.642 50.5947 188.386 50.808C188.172 50.9787 187.98 51.0853 187.81 51.128C187.682 51.2133 187.532 51.32 187.362 51.448C187.191 51.5333 187.084 51.6187 187.042 51.704C186.956 51.7467 186.914 51.9387 186.914 52.28C186.914 52.9627 187.255 53.6027 187.938 54.2C188.236 54.5413 188.535 54.7973 188.834 54.968L189.73 55.736C190.626 56.632 191.074 57.08 191.074 57.08C191.927 57.8053 193.463 59.192 195.682 61.24C197.388 62.776 198.732 64.1627 199.714 65.4C200.14 66.04 200.354 66.5093 200.354 66.808C200.354 67.064 200.311 67.2773 200.226 67.448C200.183 67.6187 200.055 67.8107 199.842 68.024C198.988 68.7493 198.199 69.2827 197.474 69.624C196.748 70.008 196.044 70.4987 195.362 71.096C194.679 71.6507 194.018 72.2053 193.378 72.76C192.823 73.272 192.183 73.7413 191.458 74.168L190.178 74.808C190.178 74.808 189.986 74.936 189.602 75.192C189.218 75.448 188.94 75.6613 188.77 75.832C188.13 76.216 187.468 76.408 186.786 76.408C186.402 76.408 185.996 76.3227 185.569 76.152L184.674 75.512ZM211.523 75C211.309 75 210.989 74.9787 210.562 74.936C210.136 74.8507 209.624 74.7867 209.027 74.744L207.683 74.424C207.469 74.3813 207.299 74.3387 207.171 74.296C207.085 74.2107 207.064 74.1467 207.107 74.104C207.107 72.9947 207.043 71.5227 206.915 69.688C206.915 69.048 206.893 68.4933 206.851 68.024C206.808 67.512 206.765 67.0853 206.723 66.744L206.595 63.992C206.595 63.2667 206.552 62.3493 206.467 61.24L206.403 59.256C206.403 57.6347 206.381 56.376 206.339 55.48C206.296 54.584 206.275 52.7067 206.275 49.848C206.275 47.16 206.296 44.3867 206.339 41.528C206.381 38.6693 206.509 35.96 206.723 33.4C206.723 32.9307 207.235 32.5467 208.259 32.248C208.899 32.1627 209.965 32.12 211.459 32.12C214.915 32.12 217.453 32.056 219.075 31.928C224.109 31.8427 227.907 31.8 230.467 31.8H233.283C236.781 31.8853 239.469 32.0133 241.347 32.184C242.029 32.184 242.52 32.9947 242.819 34.616C242.947 34.9147 243.096 35.6827 243.267 36.92C243.395 37.56 243.565 38.3493 243.779 39.288C243.821 39.544 243.821 39.8 243.779 40.056C243.779 40.2693 243.779 40.3973 243.779 40.44C243.736 40.8667 243.501 41.08 243.075 41.08C242.904 41.0373 242.648 41.016 242.307 41.016C240.515 41.016 238.317 41.1653 235.715 41.464L232.323 41.72C230.915 41.8907 229.805 41.9973 228.995 42.04C228.867 42.04 228.696 42.296 228.483 42.808C228.312 43.3627 228.12 44.6427 227.907 46.648L227.779 48.248C227.779 48.8027 227.843 49.1653 227.971 49.336C228.099 49.464 228.376 49.528 228.803 49.528H234.499C236.163 49.528 238.061 49.6347 240.194 49.848H240.963C241.517 49.976 241.859 50.1893 241.987 50.488C242.157 50.744 242.264 51.0213 242.307 51.32L242.562 57.016V57.208C242.562 57.9333 241.795 58.36 240.259 58.488C239.363 58.7013 237.656 58.808 235.139 58.808C232.963 58.808 231.555 58.7867 230.915 58.744C229.677 58.744 228.931 58.7653 228.675 58.808C228.205 58.936 227.907 59.192 227.779 59.576C227.651 59.9173 227.587 60.5147 227.587 61.368C227.587 61.9227 227.544 62.712 227.459 63.736C227.416 64.248 227.395 65.0587 227.395 66.168C230.168 66.168 232.216 66.1253 233.539 66.04C234.989 65.912 237.037 65.848 239.683 65.848C239.853 65.848 240.024 65.9973 240.194 66.296C240.408 66.7227 240.749 67.6827 241.219 69.176C241.475 70.0293 241.731 71.096 241.987 72.376C242.072 72.6747 242.115 72.9947 242.115 73.336C242.115 74.232 241.688 74.68 240.835 74.68C239.725 74.68 238.232 74.7227 236.354 74.808C235.373 74.8933 233.837 74.936 231.747 74.936C227.267 74.936 223.896 74.9573 221.635 75H211.523Z" fill="black"/>
<path d="M34 127.211C34 127.609 33.8594 127.938 33.5781 128.195C33.2969 128.453 32.9922 128.582 32.6641 128.582C32.3359 128.582 31.9961 128.477 31.6445 128.266C31.3164 128.055 31.1523 127.691 31.1523 127.176C31.1523 126.285 31.1289 125.418 31.082 124.574C31.0586 123.707 31.0234 122.84 30.9766 121.973C30.7656 121.879 30.5781 121.691 30.4141 121.41C30.25 121.129 30.168 120.859 30.168 120.602C30.168 120.25 30.3672 119.875 30.7656 119.477C30.5781 118.141 30.3203 116.793 29.9922 115.434C29.6875 114.074 29.4297 112.715 29.2188 111.355C29.1719 111.121 29.1484 110.898 29.1484 110.688C29.1484 110.453 29.1133 110.207 29.043 109.949L28.9727 109.281C28.9023 108.977 28.8438 108.66 28.7969 108.332C28.75 108.004 28.7266 107.664 28.7266 107.312C28.7266 106.633 28.9727 106.164 29.4648 105.906C29.957 105.648 30.5547 105.52 31.2578 105.52C31.9375 105.52 32.6758 105.613 33.4727 105.801C34.2695 105.965 35.043 106.199 35.793 106.504C36.543 106.809 37.2461 107.148 37.9023 107.523C38.5586 107.898 39.0859 108.273 39.4844 108.648C40.0469 109.188 40.4453 109.891 40.6797 110.758C40.9375 111.625 41.0664 112.469 41.0664 113.289C41.0664 114.344 40.8672 115.258 40.4688 116.031C40.0703 116.781 39.543 117.461 38.8867 118.07C38.2539 118.68 37.5156 119.254 36.6719 119.793C35.8281 120.309 34.9609 120.848 34.0703 121.41L33.7188 121.621C33.8125 122.488 33.8828 123.391 33.9297 124.328C33.9766 125.242 34 126.203 34 127.211ZM33.3672 118.492L34.9844 117.613C35.4062 117.379 35.8047 117.121 36.1797 116.84C36.5547 116.559 36.8945 116.242 37.1992 115.891C37.5039 115.516 37.7383 115.105 37.9023 114.66C38.0898 114.215 38.1836 113.723 38.1836 113.184C38.1836 112.223 37.9375 111.449 37.4453 110.863C36.9766 110.277 36.4023 109.82 35.7227 109.492C35.043 109.141 34.3398 108.895 33.6133 108.754C32.9102 108.613 32.3125 108.508 31.8203 108.438C31.9375 108.836 31.9961 109.352 31.9961 109.984C31.9961 110.617 32.0664 111.273 32.207 111.953C32.418 113.102 32.6172 114.215 32.8047 115.293C33.0156 116.371 33.2031 117.438 33.3672 118.492ZM51.4375 106.363C51.6484 106.363 51.8477 106.387 52.0352 106.434C52.1992 106.27 52.4805 106.188 52.8789 106.188C53.4414 106.188 53.8633 106.41 54.1445 106.855L54.8828 108.086C55.4688 108.672 55.9492 109.352 56.3242 110.125C56.7227 110.875 57.0391 111.66 57.2734 112.48C57.5078 113.301 57.6719 114.121 57.7656 114.941C57.8594 115.762 57.9062 116.523 57.9062 117.227C57.9062 118.422 57.7305 119.664 57.3789 120.953C57.0273 122.242 56.3945 123.414 55.4805 124.469C54.6367 125.547 53.875 126.332 53.1953 126.824C52.5156 127.293 51.6953 127.527 50.7344 127.527C50.3359 127.527 49.8203 127.48 49.1875 127.387C48.5781 127.293 47.9453 127.094 47.2891 126.789C46.6562 126.484 46.0586 126.039 45.4961 125.453C44.9336 124.867 44.5234 124.082 44.2656 123.098C44.0312 122.277 43.8555 121.562 43.7383 120.953C43.6445 120.32 43.5977 119.688 43.5977 119.055C43.5977 117.93 43.6914 116.828 43.8789 115.75C44.0898 114.648 44.3711 113.629 44.7227 112.691C45.0742 111.73 45.4961 110.875 45.9883 110.125C46.5039 109.375 47.0664 108.777 47.6758 108.332C48.6602 107.629 49.9141 106.973 51.4375 106.363ZM52.2109 109.141L51.2266 109.457C50.5703 109.668 49.9961 110.02 49.5039 110.512C49.0117 110.98 48.5898 111.52 48.2383 112.129C47.8867 112.738 47.5938 113.383 47.3594 114.062C47.125 114.719 46.9375 115.352 46.7969 115.961C46.6562 116.57 46.5508 117.109 46.4805 117.578C46.4336 118.047 46.4102 118.375 46.4102 118.562C46.4102 120.203 46.8672 121.902 47.7812 123.66C48.2266 124.035 48.6719 124.316 49.1172 124.504C49.5859 124.691 50.1836 124.785 50.9102 124.785C50.957 124.785 51.0273 124.762 51.1211 124.715L51.332 124.645C51.3789 124.621 51.4258 124.598 51.4727 124.574C51.5195 124.551 51.5664 124.516 51.6133 124.469L52.0703 124.082C52.1641 124.059 52.2344 123.988 52.2812 123.871C52.7031 123.402 53.0781 122.934 53.4062 122.465C53.7578 121.996 54.0508 121.492 54.2852 120.953C54.543 120.391 54.7305 119.793 54.8477 119.16C54.9883 118.504 55.0586 117.766 55.0586 116.945C55.0586 115.867 54.9062 114.801 54.6016 113.746C54.3203 112.668 53.9102 111.672 53.3711 110.758C52.9727 110.242 52.7031 109.914 52.5625 109.773C52.4453 109.609 52.3516 109.434 52.2812 109.246L52.2109 109.141ZM76.1875 121.551C76.7969 119.652 77.2891 117.777 77.6641 115.926C78.0391 114.051 78.3906 112.164 78.7188 110.266C78.7891 109.867 78.9531 109.551 79.2109 109.316C79.4922 109.082 79.8086 108.965 80.1602 108.965C80.5586 108.965 80.8867 109.105 81.1445 109.387C81.4258 109.668 81.5664 110.066 81.5664 110.582C81.1914 113.043 80.6875 115.516 80.0547 118C79.4219 120.461 78.8008 122.793 78.1914 124.996C78.0508 125.512 77.8984 125.945 77.7344 126.297C77.5703 126.625 77.2188 126.848 76.6797 126.965H76.5742C76.1758 126.941 75.9297 126.883 75.8359 126.789L75.5898 126.543C75.168 125.957 74.8633 125.406 74.6758 124.891C74.4883 124.352 74.3008 123.812 74.1133 123.273C73.7852 122.547 73.3867 121.738 72.918 120.848C72.4727 119.934 72.0625 118.984 71.6875 118L71.4414 117.332C71.0195 118.246 70.6445 119.125 70.3164 119.969C69.9883 120.812 69.6719 121.645 69.3672 122.465C69.0859 123.285 68.793 124.105 68.4883 124.926C68.1836 125.746 67.8438 126.578 67.4688 127.422C67.2109 127.773 66.8477 128.008 66.3789 128.125H66.2734C65.8516 128.078 65.4883 127.926 65.1836 127.668C64.8789 127.434 64.7031 127.117 64.6562 126.719C64.3516 125.383 64.0938 124.07 63.8828 122.781C63.6719 121.469 63.4141 120.18 63.1094 118.914C62.5469 116.922 62.0312 114.965 61.5625 113.043C61.0938 111.121 60.7188 109.094 60.4375 106.961C60.4141 106.891 60.4023 106.797 60.4023 106.68C60.4023 106.281 60.5312 105.941 60.7891 105.66C61.0703 105.379 61.4102 105.238 61.8086 105.238C62.0898 105.238 62.3711 105.332 62.6523 105.52C62.9336 105.707 63.1328 106.012 63.25 106.434C63.5312 108.543 63.9062 110.547 64.375 112.445C64.8438 114.32 65.3477 116.266 65.8867 118.281L66.6602 121.973L66.8008 121.27L67.4688 119.371C67.8672 118.246 68.2773 117.145 68.6992 116.066C69.1211 114.988 69.5547 113.887 70 112.762C70.0469 112.668 70.082 112.516 70.1055 112.305C70.1523 112.07 70.2227 111.848 70.3164 111.637C70.4336 111.402 70.5859 111.203 70.7734 111.039C70.9844 110.875 71.2891 110.781 71.6875 110.758H71.7578C72.3906 110.922 72.8008 111.367 72.9883 112.094L73.0234 112.762C73.0703 113.605 73.293 114.531 73.6914 115.539C74.0898 116.547 74.5117 117.543 74.957 118.527C75.1445 119.09 75.332 119.629 75.5195 120.145C75.7305 120.637 75.9531 121.105 76.1875 121.551ZM86.0312 126.824C85.8203 126.543 85.6445 126.203 85.5039 125.805C85.3867 125.406 85.293 124.984 85.2227 124.539C85.1523 124.094 85.0938 123.637 85.0469 123.168C85.0234 122.699 85 122.254 84.9766 121.832L84.7656 117.613C84.6953 116.934 84.6367 116.418 84.5898 116.066C84.5664 115.715 84.5312 115.363 84.4844 115.012C84.4609 114.637 84.4375 114.191 84.4141 113.676C84.4141 113.137 84.4141 112.352 84.4141 111.32C84.4141 110.969 84.4023 110.629 84.3789 110.301C84.3789 109.973 84.3789 109.645 84.3789 109.316C84.3789 108.473 84.5898 107.898 85.0117 107.594C85.457 107.266 86.0195 107.102 86.6992 107.102C87.0977 107.102 87.5195 107.125 87.9648 107.172C88.4102 107.195 88.8555 107.207 89.3008 107.207C90.1211 107.207 90.9297 107.102 91.7266 106.891C92.5234 106.656 93.2969 106.469 94.0469 106.328C94.5156 106.328 94.9141 106.457 95.2422 106.715C95.5703 106.949 95.7344 107.242 95.7344 107.594C95.7344 107.922 95.6289 108.25 95.418 108.578C95.207 108.883 94.8672 109.082 94.3984 109.176C93.4844 109.363 92.5469 109.574 91.5859 109.809C90.625 110.043 89.6523 110.16 88.668 110.16C88.4102 110.16 88.1523 110.16 87.8945 110.16C87.6367 110.16 87.4141 110.137 87.2266 110.09C87.25 110.98 87.2734 111.836 87.2969 112.656C87.3203 113.477 87.3555 114.273 87.4023 115.047H87.4375C89.2188 114.859 90.8945 114.754 92.4648 114.73C94.0352 114.684 95.6992 114.66 97.457 114.66C98.3242 114.895 98.7578 115.375 98.7578 116.102C98.7578 116.43 98.6289 116.734 98.3711 117.016C98.1367 117.273 97.8086 117.438 97.3867 117.508C97.1992 117.508 96.8242 117.508 96.2617 117.508C95.7227 117.508 95.0898 117.52 94.3633 117.543C93.6367 117.543 92.875 117.555 92.0781 117.578C91.2812 117.578 90.543 117.602 89.8633 117.648C89.207 117.672 88.6562 117.707 88.2109 117.754C87.7891 117.801 87.5781 117.859 87.5781 117.93C87.5781 118.984 87.6367 120.039 87.7539 121.094C87.8945 122.125 88.0117 123.145 88.1055 124.152C88.7383 123.918 89.4297 123.719 90.1797 123.555C90.9297 123.367 91.7031 123.227 92.5 123.133C93.3203 123.039 94.1523 122.969 94.9961 122.922C95.8398 122.875 96.6602 122.852 97.457 122.852C97.9258 123.039 98.2539 123.262 98.4414 123.52C98.6523 123.754 98.7578 124.023 98.7578 124.328C98.7578 124.656 98.6289 124.961 98.3711 125.242C98.1367 125.5 97.8086 125.664 97.3867 125.734C96.3086 125.734 95.1836 125.816 94.0117 125.98C92.8398 126.121 91.75 126.297 90.7422 126.508C89.7578 126.695 88.9141 126.859 88.2109 127C87.5078 127.164 87.0859 127.246 86.9453 127.246C86.8281 127.246 86.6875 127.199 86.5234 127.105C86.3828 127.035 86.2188 126.941 86.0312 126.824ZM104.453 127.176C104.453 127.574 104.301 127.902 103.996 128.16C103.715 128.418 103.41 128.547 103.082 128.547C102.754 128.547 102.426 128.43 102.098 128.195C101.793 127.984 101.617 127.633 101.57 127.141C101.57 125.57 101.582 124.012 101.605 122.465C101.652 120.918 101.676 119.359 101.676 117.789C101.676 117.344 101.641 116.641 101.57 115.68C101.523 114.695 101.5 113.676 101.5 112.621C101.5 111.496 101.535 110.395 101.605 109.316C101.699 108.238 101.91 107.301 102.238 106.504L102.449 106.152L102.836 105.836C103.469 105.602 104.125 105.484 104.805 105.484C105.766 105.484 106.797 105.59 107.898 105.801C109 105.988 110.02 106.328 110.957 106.82C111.895 107.312 112.668 107.98 113.277 108.824C113.91 109.645 114.227 110.699 114.227 111.988C114.227 112.598 114.133 113.16 113.945 113.676C113.781 114.191 113.559 114.66 113.277 115.082C113.02 115.504 112.715 115.879 112.363 116.207C112.035 116.535 111.707 116.805 111.379 117.016C110.699 117.461 109.949 117.812 109.129 118.07C108.309 118.305 107.453 118.574 106.562 118.879L106.141 119.02C106.094 118.996 106.07 118.984 106.07 118.984C106.633 119.383 107.16 119.805 107.652 120.25C108.168 120.672 108.684 121.094 109.199 121.516C109.738 121.938 110.289 122.348 110.852 122.746C111.438 123.121 112.07 123.473 112.75 123.801C113.195 124.223 113.418 124.668 113.418 125.137C113.418 125.535 113.277 125.863 112.996 126.121C112.738 126.355 112.422 126.473 112.047 126.473C111.766 126.473 111.438 126.391 111.062 126.227C110.688 126.062 110.301 125.863 109.902 125.629C109.504 125.371 109.094 125.102 108.672 124.82C108.273 124.539 107.898 124.281 107.547 124.047C106.938 123.648 106.375 123.238 105.859 122.816C105.367 122.395 104.922 121.984 104.523 121.586V122.324C104.523 123.098 104.5 123.895 104.453 124.715C104.43 125.512 104.43 126.332 104.453 127.176ZM104.559 116.383C104.512 116.43 104.488 116.453 104.488 116.453C104.465 116.453 104.523 116.43 104.664 116.383C105.18 116.242 105.812 116.102 106.562 115.961C107.336 115.797 108.074 115.574 108.777 115.293C109.48 114.988 110.078 114.59 110.57 114.098C111.086 113.582 111.344 112.891 111.344 112.023C111.344 111.32 111.203 110.77 110.922 110.371C110.664 109.973 110.312 109.668 109.867 109.457C109.445 109.223 108.965 109.059 108.426 108.965C107.887 108.848 107.348 108.73 106.809 108.613C106.504 108.543 106.164 108.484 105.789 108.438C105.414 108.367 105.098 108.332 104.84 108.332C104.746 108.332 104.676 108.484 104.629 108.789C104.582 109.07 104.547 109.41 104.523 109.809C104.523 110.207 104.523 110.605 104.523 111.004C104.523 111.379 104.523 111.66 104.523 111.848C104.523 112.715 104.523 113.535 104.523 114.309C104.547 115.082 104.559 115.773 104.559 116.383ZM118.797 126.824C118.586 126.543 118.41 126.203 118.27 125.805C118.152 125.406 118.059 124.984 117.988 124.539C117.918 124.094 117.859 123.637 117.812 123.168C117.789 122.699 117.766 122.254 117.742 121.832L117.531 117.613C117.461 116.934 117.402 116.418 117.355 116.066C117.332 115.715 117.297 115.363 117.25 115.012C117.227 114.637 117.203 114.191 117.18 113.676C117.18 113.137 117.18 112.352 117.18 111.32C117.18 110.969 117.168 110.629 117.145 110.301C117.145 109.973 117.145 109.645 117.145 109.316C117.145 108.473 117.355 107.898 117.777 107.594C118.223 107.266 118.785 107.102 119.465 107.102C119.863 107.102 120.285 107.125 120.73 107.172C121.176 107.195 121.621 107.207 122.066 107.207C122.887 107.207 123.695 107.102 124.492 106.891C125.289 106.656 126.062 106.469 126.812 106.328C127.281 106.328 127.68 106.457 128.008 106.715C128.336 106.949 128.5 107.242 128.5 107.594C128.5 107.922 128.395 108.25 128.184 108.578C127.973 108.883 127.633 109.082 127.164 109.176C126.25 109.363 125.312 109.574 124.352 109.809C123.391 110.043 122.418 110.16 121.434 110.16C121.176 110.16 120.918 110.16 120.66 110.16C120.402 110.16 120.18 110.137 119.992 110.09C120.016 110.98 120.039 111.836 120.062 112.656C120.086 113.477 120.121 114.273 120.168 115.047H120.203C121.984 114.859 123.66 114.754 125.23 114.73C126.801 114.684 128.465 114.66 130.223 114.66C131.09 114.895 131.523 115.375 131.523 116.102C131.523 116.43 131.395 116.734 131.137 117.016C130.902 117.273 130.574 117.438 130.152 117.508C129.965 117.508 129.59 117.508 129.027 117.508C128.488 117.508 127.855 117.52 127.129 117.543C126.402 117.543 125.641 117.555 124.844 117.578C124.047 117.578 123.309 117.602 122.629 117.648C121.973 117.672 121.422 117.707 120.977 117.754C120.555 117.801 120.344 117.859 120.344 117.93C120.344 118.984 120.402 120.039 120.52 121.094C120.66 122.125 120.777 123.145 120.871 124.152C121.504 123.918 122.195 123.719 122.945 123.555C123.695 123.367 124.469 123.227 125.266 123.133C126.086 123.039 126.918 122.969 127.762 122.922C128.605 122.875 129.426 122.852 130.223 122.852C130.691 123.039 131.02 123.262 131.207 123.52C131.418 123.754 131.523 124.023 131.523 124.328C131.523 124.656 131.395 124.961 131.137 125.242C130.902 125.5 130.574 125.664 130.152 125.734C129.074 125.734 127.949 125.816 126.777 125.98C125.605 126.121 124.516 126.297 123.508 126.508C122.523 126.695 121.68 126.859 120.977 127C120.273 127.164 119.852 127.246 119.711 127.246C119.594 127.246 119.453 127.199 119.289 127.105C119.148 127.035 118.984 126.941 118.797 126.824ZM136.41 106.855C136.504 106.785 136.715 106.75 137.043 106.75L140.418 107.629C141.262 107.816 142.047 108.203 142.773 108.789C143.523 109.352 144.191 109.996 144.777 110.723C145.363 111.426 145.844 112.164 146.219 112.938C146.617 113.711 146.887 114.391 147.027 114.977C147.191 115.633 147.273 116.359 147.273 117.156C147.273 117.672 147.227 118.258 147.133 118.914C147.062 119.57 146.922 120.227 146.711 120.883C146.523 121.539 146.254 122.172 145.902 122.781C145.574 123.367 145.141 123.871 144.602 124.293C143.922 124.832 143.395 125.23 143.02 125.488C142.645 125.746 142.305 125.945 142 126.086C141.719 126.227 141.391 126.355 141.016 126.473C140.664 126.566 140.148 126.73 139.469 126.965C139.281 127.012 139.141 127.035 139.047 127.035C138.789 127.035 138.555 126.977 138.344 126.859C138.156 126.719 138.039 126.648 137.992 126.648H137.957H137.922C137.898 126.648 137.758 126.73 137.5 126.895C137.266 127.059 137.043 127.141 136.832 127.141C136.504 127.141 136.164 127.035 135.812 126.824C135.484 126.613 135.32 126.285 135.32 125.84C135.32 122.793 135.18 119.793 134.898 116.84C134.641 113.887 134.371 110.875 134.09 107.805C134.277 107.078 134.746 106.656 135.496 106.539C135.848 106.539 136.141 106.621 136.375 106.785L136.41 106.855ZM138.168 124.398C138.145 124.445 138.133 124.469 138.133 124.469C138.133 124.492 138.156 124.504 138.203 124.504C138.25 124.504 138.297 124.504 138.344 124.504C138.414 124.504 138.496 124.48 138.59 124.434C139.012 124.293 139.457 124.152 139.926 124.012C140.395 123.871 140.852 123.684 141.297 123.449C141.742 123.191 142.164 122.852 142.562 122.43C142.984 122.008 143.371 121.434 143.723 120.707C144.238 119.605 144.496 118.492 144.496 117.367C144.496 116.242 144.238 115.129 143.723 114.027C143.23 112.902 142.492 111.953 141.508 111.18C140.969 110.781 140.383 110.465 139.75 110.23C139.117 109.996 138.52 109.809 137.957 109.668L137.113 109.457C137.23 110.676 137.348 111.941 137.465 113.254C137.582 114.543 137.688 115.832 137.781 117.121C137.898 118.41 137.98 119.676 138.027 120.918C138.098 122.16 138.145 123.32 138.168 124.398ZM160.949 107.629L161.055 107.453C161.148 107.266 161.336 107.102 161.617 106.961C161.922 106.82 162.273 106.703 162.672 106.609C163.07 106.516 163.492 106.445 163.938 106.398C164.383 106.352 164.816 106.328 165.238 106.328C165.988 106.328 166.621 106.48 167.137 106.785C167.676 107.066 168.109 107.43 168.438 107.875C168.766 108.297 169 108.766 169.141 109.281C169.305 109.773 169.387 110.23 169.387 110.652C169.363 111.191 169.293 111.719 169.176 112.234C169.059 112.75 168.871 113.242 168.613 113.711L168.227 114.414C169.258 114.414 170.102 114.52 170.758 114.73C171.414 114.918 171.93 115.211 172.305 115.609C172.68 115.984 172.938 116.465 173.078 117.051C173.219 117.613 173.289 118.27 173.289 119.02C173.289 119.934 173.207 120.742 173.043 121.445C172.879 122.148 172.645 122.77 172.34 123.309C172.059 123.848 171.695 124.328 171.25 124.75C170.828 125.172 170.348 125.57 169.809 125.945C169.152 126.461 168.414 126.812 167.594 127C166.773 127.164 165.977 127.305 165.203 127.422C164.711 127.375 164.371 127.258 164.184 127.07L164.113 126.93C163.855 127.117 163.586 127.223 163.305 127.246C162.953 127.246 162.613 127.164 162.285 127C161.98 126.812 161.805 126.449 161.758 125.91L161.652 123.238L161.547 122.113C161.336 120.754 161.137 119.5 160.949 118.352C160.762 117.203 160.586 116.113 160.422 115.082C160.281 114.027 160.141 113.008 160 112.023C159.883 111.016 159.777 109.961 159.684 108.859C159.777 108.438 159.941 108.145 160.176 107.98C160.434 107.793 160.691 107.676 160.949 107.629ZM166.152 117.086C165.988 117.414 165.672 117.707 165.203 117.965C164.758 118.199 164.348 118.316 163.973 118.316H163.832L164.289 121.516C164.453 122.758 164.559 123.848 164.605 124.785V124.82H164.641C164.688 124.82 164.746 124.809 164.816 124.785C168.543 124.223 170.406 122.488 170.406 119.582C170.406 119.23 170.371 118.855 170.301 118.457C170.254 118.059 170.172 117.648 170.055 117.227L170.02 117.191C169.832 117.121 169.551 117.051 169.176 116.98C168.801 116.887 168.379 116.84 167.91 116.84C167.371 116.84 166.785 116.922 166.152 117.086ZM163.34 115.258V115.293C163.387 115.293 163.562 115.223 163.867 115.082C164.172 114.918 164.418 114.812 164.605 114.766L164.711 114.66C165.18 114.121 165.59 113.488 165.941 112.762C166.293 112.012 166.469 111.309 166.469 110.652C166.469 110.207 166.363 109.82 166.152 109.492C165.965 109.164 165.578 109 164.992 109C164.617 109 164.207 109.059 163.762 109.176C163.316 109.293 162.93 109.375 162.602 109.422C162.625 109.891 162.66 110.395 162.707 110.934C162.777 111.449 162.848 111.965 162.918 112.48C162.988 112.996 163.059 113.5 163.129 113.992C163.199 114.461 163.27 114.883 163.34 115.258ZM181.516 118.316C181.562 118.105 181.609 117.953 181.656 117.859L178.422 112.762C177.883 111.895 177.379 110.992 176.91 110.055C176.465 109.117 176.102 108.133 175.82 107.102V106.855C175.82 106.457 175.938 106.105 176.172 105.801C176.43 105.473 176.793 105.309 177.262 105.309C177.707 105.309 178.117 105.566 178.492 106.082C179.031 107.793 179.734 109.398 180.602 110.898C181.469 112.375 182.336 113.746 183.203 115.012C183.578 114.566 184.012 114.062 184.504 113.5C184.996 112.938 185.5 112.316 186.016 111.637C186.531 110.957 187.035 110.23 187.527 109.457C188.043 108.66 188.488 107.805 188.863 106.891C189.121 106.586 189.379 106.375 189.637 106.258C189.895 106.117 190.152 106.047 190.41 106.047C190.832 106.047 191.148 106.199 191.359 106.504C191.57 106.809 191.676 107.195 191.676 107.664C191.066 109.352 190.246 110.875 189.215 112.234C188.207 113.57 187.141 114.871 186.016 116.137C185.828 116.324 185.57 116.617 185.242 117.016C184.938 117.391 184.633 117.73 184.328 118.035L184.363 118.246C184.363 118.926 184.387 119.535 184.434 120.074C184.48 120.613 184.516 121.117 184.539 121.586C184.586 122.031 184.621 122.477 184.645 122.922C184.691 123.344 184.715 123.777 184.715 124.223C184.715 124.527 184.715 124.902 184.715 125.348C184.715 125.793 184.68 126.145 184.609 126.402L184.539 126.789C184.422 127.164 184.234 127.445 183.977 127.633C183.719 127.82 183.461 127.914 183.203 127.914C182.875 127.914 182.582 127.809 182.324 127.598C182.09 127.387 181.914 127.129 181.797 126.824L181.762 126.508C181.762 126.039 181.773 125.629 181.797 125.277C181.82 124.926 181.832 124.562 181.832 124.188C181.832 123.719 181.809 123.273 181.762 122.852C181.738 122.406 181.703 121.961 181.656 121.516C181.633 121.07 181.598 120.59 181.551 120.074C181.527 119.559 181.516 118.973 181.516 118.316ZM205.633 126.824C205.422 126.543 205.246 126.203 205.105 125.805C204.988 125.406 204.895 124.984 204.824 124.539C204.754 124.094 204.695 123.637 204.648 123.168C204.625 122.699 204.602 122.254 204.578 121.832L204.367 117.613C204.297 116.934 204.238 116.418 204.191 116.066C204.168 115.715 204.133 115.363 204.086 115.012C204.062 114.637 204.039 114.191 204.016 113.676C204.016 113.137 204.016 112.352 204.016 111.32C204.016 110.969 204.004 110.629 203.98 110.301C203.98 109.973 203.98 109.645 203.98 109.316C203.98 108.473 204.191 107.898 204.613 107.594C205.059 107.266 205.621 107.102 206.301 107.102C206.699 107.102 207.121 107.125 207.566 107.172C208.012 107.195 208.457 107.207 208.902 107.207C209.723 107.207 210.531 107.102 211.328 106.891C212.125 106.656 212.898 106.469 213.648 106.328C214.117 106.328 214.516 106.457 214.844 106.715C215.172 106.949 215.336 107.242 215.336 107.594C215.336 107.922 215.23 108.25 215.02 108.578C214.809 108.883 214.469 109.082 214 109.176C213.086 109.363 212.148 109.574 211.188 109.809C210.227 110.043 209.254 110.16 208.27 110.16C208.012 110.16 207.754 110.16 207.496 110.16C207.238 110.16 207.016 110.137 206.828 110.09C206.852 110.98 206.875 111.836 206.898 112.656C206.922 113.477 206.957 114.273 207.004 115.047H207.039C208.82 114.859 210.496 114.754 212.066 114.73C213.637 114.684 215.301 114.66 217.059 114.66C217.926 114.895 218.359 115.375 218.359 116.102C218.359 116.43 218.23 116.734 217.973 117.016C217.738 117.273 217.41 117.438 216.988 117.508C216.801 117.508 216.426 117.508 215.863 117.508C215.324 117.508 214.691 117.52 213.965 117.543C213.238 117.543 212.477 117.555 211.68 117.578C210.883 117.578 210.145 117.602 209.465 117.648C208.809 117.672 208.258 117.707 207.812 117.754C207.391 117.801 207.18 117.859 207.18 117.93C207.18 118.984 207.238 120.039 207.355 121.094C207.496 122.125 207.613 123.145 207.707 124.152C208.34 123.918 209.031 123.719 209.781 123.555C210.531 123.367 211.305 123.227 212.102 123.133C212.922 123.039 213.754 122.969 214.598 122.922C215.441 122.875 216.262 122.852 217.059 122.852C217.527 123.039 217.855 123.262 218.043 123.52C218.254 123.754 218.359 124.023 218.359 124.328C218.359 124.656 218.23 124.961 217.973 125.242C217.738 125.5 217.41 125.664 216.988 125.734C215.91 125.734 214.785 125.816 213.613 125.98C212.441 126.121 211.352 126.297 210.344 126.508C209.359 126.695 208.516 126.859 207.812 127C207.109 127.164 206.688 127.246 206.547 127.246C206.43 127.246 206.289 127.199 206.125 127.105C205.984 127.035 205.82 126.941 205.633 126.824ZM230.594 110.09C230.523 112.598 230.488 115.188 230.488 117.859V126.086C230.488 126.508 230.336 126.848 230.031 127.105C229.75 127.363 229.445 127.492 229.117 127.492C228.789 127.492 228.461 127.375 228.133 127.141C227.828 126.93 227.652 126.555 227.605 126.016V117.93C227.605 115.328 227.641 112.809 227.711 110.371C226.586 110.488 225.578 110.594 224.688 110.688C223.797 110.758 223.012 110.84 222.332 110.934C221.863 110.887 221.5 110.723 221.242 110.441C221.008 110.16 220.891 109.82 220.891 109.422C220.891 108.977 221.102 108.637 221.523 108.402C221.945 108.168 222.508 107.992 223.211 107.875C223.914 107.734 224.723 107.641 225.637 107.594C226.574 107.547 227.559 107.477 228.59 107.383C230.02 107.266 231.285 107.172 232.387 107.102C233.488 107.031 234.438 106.996 235.234 106.996C236.078 107.301 236.5 107.77 236.5 108.402C236.43 108.895 236.219 109.246 235.867 109.457C235.539 109.668 235.105 109.809 234.566 109.879C234.051 109.949 233.453 109.984 232.773 109.984C232.094 109.984 231.367 110.02 230.594 110.09ZM251.898 119.934C251.945 119.699 251.969 119.594 251.969 119.617C251.688 119.898 251.43 120.051 251.195 120.074H246.625C245.266 120.074 243.977 120.039 242.758 119.969C242.805 120.953 242.84 121.961 242.863 122.992C242.887 124.023 242.898 125.09 242.898 126.191C242.898 126.59 242.758 126.906 242.477 127.141C242.195 127.398 241.891 127.527 241.562 127.527C241.234 127.527 240.895 127.422 240.543 127.211C240.215 127 240.051 126.637 240.051 126.121C240.051 123.215 239.957 120.355 239.77 117.543C239.582 114.707 239.441 111.824 239.348 108.895C239.465 108.473 239.641 108.156 239.875 107.945C240.109 107.734 240.402 107.605 240.754 107.559C241.434 107.559 241.926 107.98 242.23 108.824C242.277 110.254 242.324 111.66 242.371 113.043C242.441 114.402 242.523 115.75 242.617 117.086C243.906 117.156 245.277 117.191 246.73 117.191H251.266C251.5 117.285 251.723 117.461 251.934 117.719C251.957 117.719 251.969 117.648 251.969 117.508V117.227C251.992 116.664 252.004 116.008 252.004 115.258C252.027 114.484 252.051 113.664 252.074 112.797C252.121 111.906 252.168 111.004 252.215 110.09C252.285 109.152 252.355 108.262 252.426 107.418C252.543 106.996 252.742 106.68 253.023 106.469C253.328 106.234 253.621 106.117 253.902 106.117C254.277 106.117 254.594 106.27 254.852 106.574C255.133 106.855 255.273 107.242 255.273 107.734C255.133 109.656 255.027 111.555 254.957 113.43C254.91 115.305 254.852 117.238 254.781 119.23L254.57 123.133C254.547 123.438 254.523 123.871 254.5 124.434C254.477 124.973 254.406 125.512 254.289 126.051C254.172 126.566 253.984 127.023 253.727 127.422C253.492 127.82 253.129 128.02 252.637 128.02C252.285 128.02 251.969 127.891 251.688 127.633C251.406 127.398 251.266 127.023 251.266 126.508C251.266 126.344 251.277 126.227 251.301 126.156C251.395 125.734 251.465 125.195 251.512 124.539C251.582 123.859 251.641 123.203 251.688 122.57C251.758 121.914 251.805 121.34 251.828 120.848C251.852 120.332 251.875 120.027 251.898 119.934Z" fill="black"/>
</svg>
